<svg width="200" height="37" viewBox="0 0 200 37" fill="none" xmlns="http://www.w3.org/2000/svg">
<path d="M38.2318 1.70291L25.0476 14.7151C24.527 15.2267 23.6921 15.2267 23.1746 14.7151L9.99366 1.70291C6.28254 -1.95767 0 0.673372 0 5.88779V24.0413V31.0606V34.9405C0 36.059 0.904762 36.9646 2.02222 36.9646C3.13968 36.9646 4.04445 36.059 4.04445 34.9405L4.04762 5.63994C4.04762 4.67077 4.84762 3.88591 5.82223 3.91769C6.76508 3.94629 7.49207 4.76928 7.49207 5.71302L7.48254 27.8703C7.48254 28.8141 8.20953 29.6371 9.15239 29.6657C10.127 29.6943 10.927 28.9126 10.927 27.9434V12.0618C11.054 11.2357 11.7651 10.6002 12.6286 10.6002C13.581 10.6002 14.3524 11.3723 14.3524 12.3256L14.3587 21.2292C14.3587 22.1697 15.1206 22.9324 16.0603 22.9324C17 22.9324 17.7619 22.1697 17.7619 21.2292V16.9871C17.7619 16.2753 18.6191 15.9163 19.1238 16.4151L38.2318 35.2423C41.9429 38.9029 48.2254 36.275 48.2254 31.0575V5.88779C48.2222 0.673372 41.9397 -1.95767 38.2318 1.70291ZM30.4603 19.9581C30.4603 20.6699 29.6032 21.029 29.0984 20.5301L27.5937 19.0462C27.2762 18.7316 27.2762 18.22 27.5937 17.9054L29.0984 16.4215C29.6032 15.9226 30.4603 16.2817 30.4603 16.9935V19.9581ZM37.3524 24.5911C37.3524 25.5602 36.5524 26.3451 35.5778 26.3133C34.6349 26.2847 33.908 25.4617 33.908 24.518V12.4273C33.908 11.4835 34.6349 10.6605 35.5778 10.6319C36.5524 10.6033 37.3524 11.385 37.3524 12.3542V24.5911ZM44.2413 31.3752C44.2413 32.3285 43.4699 33.1006 42.5175 33.1006C41.5651 33.1006 40.7937 32.3285 40.7937 31.3752V5.57003C40.7937 4.61676 41.5651 3.8446 42.5175 3.8446C43.4699 3.8446 44.2413 4.61676 44.2413 5.57003V31.3752Z" fill="url(#paint0_linear)"/>
<path fill-rule="evenodd" clip-rule="evenodd" d="M73.4761 23.248C73.5967 23.5371 73.7174 23.8326 73.8348 24.125C73.9523 23.8199 74.0729 23.5212 74.1999 23.2257C74.3269 22.9302 74.4602 22.6474 74.6031 22.3805L79.9777 12.2599C80.0444 12.1328 80.1142 12.0311 80.184 11.9548C80.2571 11.8786 80.3364 11.8245 80.4221 11.7896C80.5079 11.7546 80.6094 11.7356 80.7174 11.726C80.8253 11.7197 80.9555 11.7133 81.1079 11.7133H83.6571V29.9844H80.6793V18.1861C80.6793 17.9668 80.6856 17.7253 80.6983 17.4647C80.711 17.2042 80.7301 16.9373 80.7555 16.6704L75.2666 27.0325C75.1428 27.2676 74.9777 27.4519 74.7777 27.5822C74.5777 27.7125 74.3428 27.7792 74.0729 27.7792H73.6063C73.3396 27.7792 73.1047 27.7125 72.9015 27.5822C72.6983 27.4519 72.5364 27.2676 72.4126 27.0325L66.8475 16.6322C66.8824 16.9087 66.9047 17.1819 66.9174 17.4489C66.9301 17.7158 66.9364 17.9605 66.9364 18.1892V29.9908H63.9586V11.7197H66.5078C66.657 11.7197 66.7872 11.7228 66.8983 11.7324C67.0063 11.7419 67.1047 11.761 67.1936 11.7959C67.2824 11.8309 67.3618 11.8849 67.438 11.9612C67.5142 12.0374 67.584 12.1391 67.6507 12.2662L73.0761 22.4122C73.2221 22.6792 73.3555 22.9588 73.4761 23.248Z" fill="#F7F7F7"/>
<path fill-rule="evenodd" clip-rule="evenodd" d="M100.508 27.076C101.159 27.076 101.74 26.9679 102.251 26.7519C102.762 26.5358 103.197 26.2307 103.549 25.8399C103.902 25.449 104.175 24.9724 104.362 24.4163C104.549 23.8571 104.644 23.2343 104.644 22.5416V11.7155H108.006V22.5384C108.006 23.6124 107.832 24.607 107.489 25.519C107.143 26.4309 106.648 27.219 105.997 27.8799C105.346 28.544 104.559 29.0588 103.638 29.4306C102.714 29.7992 101.673 29.9866 100.514 29.9866C99.3555 29.9866 98.3174 29.7992 97.3904 29.4306C96.4666 29.062 95.6825 28.544 95.038 27.8799C94.3936 27.2158 93.8952 26.4309 93.5523 25.519C93.2063 24.607 93.0349 23.6124 93.0349 22.5384V11.7155H96.3968V22.5257C96.3968 23.2152 96.4888 23.8412 96.6761 24.4004C96.8634 24.9597 97.1333 25.4363 97.4825 25.8304C97.8317 26.2276 98.2634 26.5326 98.7745 26.7487C99.2793 26.9679 99.8571 27.076 100.508 27.076Z" fill="#F7F7F7"/>
<path fill-rule="evenodd" clip-rule="evenodd" d="M126.825 15.1092C126.733 15.2935 126.625 15.4206 126.505 15.4968C126.384 15.5731 126.238 15.608 126.07 15.608C125.902 15.608 125.714 15.5445 125.505 15.4142C125.295 15.2871 125.048 15.1409 124.762 14.9821C124.476 14.8232 124.143 14.6802 123.762 14.5499C123.381 14.4228 122.93 14.3561 122.409 14.3561C121.94 14.3561 121.53 14.4101 121.184 14.5245C120.835 14.6357 120.543 14.7946 120.305 14.9916C120.067 15.1918 119.886 15.4301 119.771 15.7097C119.654 15.9894 119.594 16.2944 119.594 16.6281C119.594 17.0538 119.714 17.4066 119.952 17.6894C120.19 17.9722 120.508 18.2137 120.901 18.4139C121.295 18.614 121.743 18.792 122.248 18.9509C122.752 19.1097 123.263 19.2782 123.79 19.4561C124.314 19.6372 124.828 19.8438 125.333 20.0821C125.838 20.3204 126.286 20.6191 126.679 20.9813C127.073 21.3436 127.39 21.7853 127.628 22.3096C127.867 22.8339 127.987 23.4694 127.987 24.2193C127.987 25.0359 127.848 25.7986 127.565 26.5103C127.282 27.2221 126.873 27.8418 126.333 28.3724C125.79 28.8999 125.13 29.3162 124.352 29.6212C123.571 29.9262 122.679 30.0756 121.67 30.0756C121.092 30.0756 120.521 30.0216 119.959 29.9072C119.397 29.7928 118.857 29.6339 118.34 29.4274C117.825 29.2208 117.343 28.9698 116.895 28.6775C116.448 28.3883 116.048 28.061 115.695 27.7019L116.676 26.0909C116.768 25.9733 116.879 25.878 117.009 25.7986C117.14 25.7191 117.286 25.681 117.444 25.681C117.654 25.681 117.879 25.7668 118.124 25.9352C118.368 26.1068 118.654 26.2943 118.987 26.504C119.317 26.7137 119.708 26.9012 120.155 27.0728C120.603 27.2444 121.143 27.327 121.771 27.327C122.736 27.327 123.482 27.1014 124.013 26.647C124.54 26.1926 124.806 25.5412 124.806 24.6928C124.806 24.2193 124.686 23.8316 124.448 23.5329C124.209 23.2343 123.892 22.98 123.498 22.7767C123.105 22.5733 122.657 22.4017 122.152 22.2587C121.648 22.1157 121.136 21.9632 120.616 21.798C120.095 21.6327 119.584 21.4326 119.079 21.1974C118.575 20.9655 118.127 20.6604 117.733 20.2855C117.34 19.9105 117.022 19.4434 116.784 18.881C116.546 18.3185 116.425 17.6258 116.425 16.8028C116.425 16.1451 116.555 15.5032 116.822 14.8804C117.086 14.2544 117.473 13.7015 117.981 13.2185C118.489 12.7355 119.111 12.3478 119.848 12.0587C120.587 11.7663 121.428 11.6202 122.378 11.6202C123.451 11.6202 124.441 11.7854 125.346 12.1191C126.251 12.4527 127.022 12.9166 127.66 13.5172L126.825 15.1092Z" fill="#F7F7F7"/>
<path fill-rule="evenodd" clip-rule="evenodd" d="M150.111 20.8574C150.111 19.8628 149.981 18.9699 149.721 18.1819C149.46 17.3907 149.086 16.7202 148.6 16.1705C148.114 15.6176 147.521 15.195 146.822 14.9026C146.124 14.6103 145.336 14.4641 144.457 14.4641C143.581 14.4641 142.79 14.6103 142.089 14.9026C141.387 15.195 140.787 15.6176 140.298 16.1705C139.806 16.7234 139.429 17.3938 139.162 18.1819C138.898 18.9731 138.765 19.8628 138.765 20.8574C138.765 21.852 138.898 22.7449 139.162 23.5329C139.425 24.321 139.803 24.9915 140.298 25.5412C140.79 26.0877 141.387 26.5072 142.089 26.8027C142.79 27.095 143.581 27.2412 144.457 27.2412C145.333 27.2412 146.121 27.095 146.822 26.8027C147.521 26.5103 148.114 26.0909 148.6 25.5412C149.089 24.9946 149.463 24.3242 149.721 23.5329C149.981 22.7449 150.111 21.852 150.111 20.8574ZM153.892 20.8511C153.892 22.1729 153.67 23.3995 153.225 24.5275C152.781 25.6556 152.156 26.6311 151.352 27.4573C150.549 28.2803 149.578 28.9253 148.448 29.3861C147.314 29.85 146.063 30.0788 144.686 30.0788C143.311 30.0788 142.057 29.8468 140.921 29.3861C139.784 28.9253 138.813 28.2803 138.003 27.4573C137.194 26.6311 136.568 25.6587 136.124 24.5275C135.679 23.3995 135.457 22.1729 135.457 20.8511C135.457 19.5292 135.679 18.3026 136.124 17.1746C136.568 16.0465 137.194 15.071 138.003 14.2449C138.813 13.4187 139.784 12.7768 140.921 12.3161C142.057 11.8553 143.311 11.6234 144.686 11.6234C146.06 11.6234 147.314 11.8553 148.448 12.3224C149.581 12.7895 150.549 13.4314 151.352 14.2512C152.159 15.071 152.781 16.0465 153.225 17.1746C153.67 18.3026 153.892 19.5292 153.892 20.8511Z" fill="#F7F7F7"/>
<path d="M161.349 25.4363C162.733 25.4395 163.816 26.5326 163.806 27.918C163.797 29.3098 162.714 30.3839 161.321 30.3775C159.921 30.3711 158.86 29.3003 158.863 27.8894C158.87 26.4977 159.946 25.4332 161.349 25.4363Z" fill="#F7F7F7"/>
<path d="M200 11.7664H197.219V29.939H200V11.7664Z" fill="#F7F7F7"/>
<path d="M188.997 29.4909C187.089 24.6292 185.181 19.7643 183.27 14.8995L182.105 11.8935C182.063 11.7854 181.959 11.7155 181.844 11.7155H179.6C178.952 11.7155 178.368 12.1159 178.133 12.7196L177.917 13.2789C177.917 13.2821 177.914 13.2821 177.914 13.2852C176.959 15.732 176.006 18.1787 175.048 20.6255C173.879 23.6092 172.714 26.5898 171.533 29.5672C171.406 29.885 171.451 29.9644 171.8 29.958C172.54 29.9453 173.279 29.9676 174.019 29.9803C174.714 29.993 175.121 29.7229 175.368 29.0556C175.759 28.0038 176.149 26.952 176.517 25.8939C176.61 25.6302 176.73 25.5412 177.019 25.5412C179.092 25.5507 181.165 25.538 183.238 25.5348C183.87 25.5348 183.962 25.6079 184.152 26.2053C184.457 27.1618 184.797 28.1055 185.209 29.0238C185.457 29.5767 185.835 29.9485 186.483 29.9549C187.206 29.9612 187.933 29.9803 188.657 29.9803C189.187 29.9866 189.187 29.9771 188.997 29.4909ZM182.695 22.9928C181.009 22.9864 179.327 22.9896 177.587 22.9896C178.486 20.5238 179.365 18.1025 180.283 15.5858C180.775 16.9522 181.235 18.2232 181.695 19.4942C182.083 20.5619 182.467 21.6296 182.857 22.6941C182.924 22.872 182.978 22.9959 182.695 22.9928Z" fill="#F7F7F7"/>
<defs>
<linearGradient id="paint0_linear" x1="0" y1="18.4805" x2="48.2229" y2="18.4805" gradientUnits="userSpaceOnUse">
<stop offset="0.00128141" stop-color="#00CAA7"/>
<stop offset="1" stop-color="#00A6AF"/>
</linearGradient>
</defs>
</svg>
